<svg width="28" height="28" viewBox="0 0 28 28" fill="none" xmlns="http://www.w3.org/2000/svg">
<circle cx="14" cy="14" r="14" fill="#2B658B"/>
<path d="M18 16.8329C18 17.8525 17.7209 18.6353 17.1628 19.1812C16.615 19.7271 15.845 20 14.8527 20H13.3643C12.1447 20 11.2765 19.7889 10.7597 19.3666C10.2532 18.9443 10 18.213 10 17.1728V11C10 9.89543 10.8954 9 12 9H14.6667C15.7209 9 16.5116 9.26264 17.0388 9.78792C17.5762 10.3132 17.845 11.0548 17.845 12.0126C17.845 12.5688 17.7003 13.0426 17.4109 13.434C17.1318 13.8254 16.8217 14.1035 16.4806 14.2683C17.4935 14.742 18 15.5969 18 16.8329ZM14.4961 13.2949C15.292 13.2949 15.6899 12.8984 15.6899 12.1053C15.6899 11.3123 15.292 10.9157 14.4961 10.9157H12.155V13.2949H14.4961ZM15.845 16.7247C15.845 16.2303 15.7571 15.8596 15.5814 15.6124C15.4057 15.3549 15.0904 15.2261 14.6357 15.2261H12.155V16.9565C12.155 17.3787 12.2584 17.6723 12.4651 17.8371C12.6822 18.0019 13.0336 18.0843 13.5194 18.0843H14.6357C15.4419 18.0843 15.845 17.6311 15.845 16.7247Z" fill="url(#paint0_linear_199_83)"/>
<defs>
<linearGradient id="paint0_linear_199_83" x1="14" y1="9" x2="14" y2="20" gradientUnits="userSpaceOnUse">
<stop stop-color="#C8E9FF"/>
<stop offset="1" stop-color="#98D6FF"/>
</linearGradient>
</defs>
</svg>
